<?xml version="1.0" encoding="UTF-8" standalone="no"?>
<!-- Created with Inkscape (http://www.inkscape.org/) -->

<svg
   xmlns:dc="http://purl.org/dc/elements/1.1/"
   xmlns:cc="http://creativecommons.org/ns#"
   xmlns:rdf="http://www.w3.org/1999/02/22-rdf-syntax-ns#"
   xmlns:svg="http://www.w3.org/2000/svg"
   xmlns="http://www.w3.org/2000/svg"
   xmlns:sodipodi="http://sodipodi.sourceforge.net/DTD/sodipodi-0.dtd"
   xmlns:inkscape="http://www.inkscape.org/namespaces/inkscape"
   width="210mm"
   height="297mm"
   viewBox="0 0 210 297"
   version="1.1"
   id="svg71"
   sodipodi:docname="violinschlüssel.svg"
   inkscape:version="0.92.4 5da689c313, 2019-01-14">
  <defs
     id="defs65" />
  <sodipodi:namedview
     id="base"
     pagecolor="#ffffff"
     bordercolor="#666666"
     borderopacity="1.0"
     inkscape:pageopacity="0.0"
     inkscape:pageshadow="2"
     inkscape:zoom="11.313709"
     inkscape:cx="399.1239"
     inkscape:cy="614.06305"
     inkscape:document-units="mm"
     inkscape:current-layer="layer2"
     showgrid="false"
     inkscape:window-width="1415"
     inkscape:window-height="994"
     inkscape:window-x="2000"
     inkscape:window-y="12"
     inkscape:window-maximized="0" />
  <metadata
     id="metadata68">
    <rdf:RDF>
      <cc:Work
         rdf:about="">
        <dc:format>image/svg+xml</dc:format>
        <dc:type
           rdf:resource="http://purl.org/dc/dcmitype/StillImage" />
        <dc:title></dc:title>
      </cc:Work>
    </rdf:RDF>
  </metadata>
  <g
     inkscape:label="Ebene 1"
     inkscape:groupmode="layer"
     id="layer1"
     style="display:none"
     sodipodi:insensitive="true">
    <path
       inkscape:connector-curvature="0"
       style="fill:none;stroke:#000000;stroke-width:0.0070292"
       d="m 98.642842,133.08134 c 0.02812,0 0.06326,-0.007 0.09138,-0.007 1.089526,0 1.799478,0.89974 1.799478,1.83462 0,0.53422 -0.23197,1.0825 -0.752127,1.47614 -0.154642,0.11949 -0.330372,0.19681 -0.513131,0.25305 0.02109,0.24602 0.03515,0.49204 0.03515,0.73806 0,0.13356 -0.007,0.27414 -0.01406,0.4077 -0.04921,0.8435 -0.632628,1.60265 -1.462073,1.60265 -0.759153,0 -1.370693,-0.61857 -1.370693,-1.38475 0,-0.40769 0.372547,-0.72401 0.78727,-0.72401 0.379576,0 0.667773,0.33038 0.667773,0.72401 0,0.36552 -0.302255,0.66777 -0.667773,0.66777 -0.07732,0 -0.147614,-0.0141 -0.217906,-0.0422 0.18276,0.27414 0.477986,0.4569 0.822416,0.4569 0.674803,0 1.103584,-0.64668 1.145759,-1.34257 0.007,-0.12653 0.01406,-0.26009 0.01406,-0.38661 0,-0.21791 -0.007,-0.42878 -0.02812,-0.64669 -0.203846,0.0351 -0.407693,0.0562 -0.625598,0.0562 -1.321488,1e-5 -2.340722,-1.20901 -2.340722,-2.62891 0,-1.24416 0.920825,-2.15093 1.743241,-3.09987 -0.133555,-0.43581 -0.260081,-0.87865 -0.316314,-1.33555 -0.04218,-0.36552 -0.0492,-0.73104 -0.0492,-1.09655 0,-0.80836 0.386605,-1.57454 1.04735,-2.05253 0.02109,-0.0141 0.0492,-0.0211 0.07029,-0.0211 0.02812,0 0.0492,0 0.07029,0.0211 0.499073,0.59045 0.934883,1.72215 0.934883,2.51645 0,1.00518 -0.604511,1.79245 -1.265255,2.55863 0.147613,0.47799 0.274138,0.97003 0.393634,1.45504 z m 0.597482,3.26858 c 0.477985,-0.1687 0.794296,-0.66777 0.794296,-1.15279 0,-0.63263 -0.463924,-1.25822 -1.216048,-1.33554 0.168701,0.81538 0.323343,1.62374 0.421752,2.48833 z m -2.720299,-1.62374 c 0,0.94894 0.906767,1.73621 1.855708,1.73621 0.196818,0 0.386606,-0.0141 0.576394,-0.0422 -0.09841,-0.89271 -0.26008,-1.72215 -0.442839,-2.55862 -0.555307,0.0562 -0.871621,0.42878 -0.871621,0.83647 0,0.30928 0.17573,0.63966 0.569365,0.86459 0.03515,0.0352 0.0492,0.0703 0.0492,0.10544 0,0.0773 -0.07029,0.15464 -0.154642,0.15464 -0.02109,0 -0.04218,-0.007 -0.06326,-0.0141 -0.562335,-0.30225 -0.822415,-0.80835 -0.822415,-1.3004 0,-0.61857 0.407693,-1.22308 1.124671,-1.38475 -0.09841,-0.40769 -0.203847,-0.82242 -0.323343,-1.23011 -0.752124,0.85053 -1.497219,1.70809 -1.497219,2.83277 z m 2.347752,-7.1487 c -0.695891,0.33741 -1.13873,1.04735 -1.13873,1.82057 0,0.52016 0.126526,0.93488 0.253051,1.36366 0.562336,-0.68183 1.026263,-1.39178 1.026263,-2.27746 0,-0.38661 -0.02812,-0.55531 -0.140584,-0.90677 z"
       id="path34" />
  </g>
  <g
     inkscape:groupmode="layer"
     id="layer2"
     inkscape:label="Ebene 2"
     style="display:inline">
    <path
       style="fill:none;fill-rule:evenodd;stroke:#000000;stroke-width:0.0269875;stroke-linecap:butt;stroke-linejoin:miter;stroke-miterlimit:4;stroke-dasharray:none;stroke-opacity:1"
       d="m 98.867776,127.57748 c -0.844451,0.47201 -1.137793,1.11982 -1.141251,1.80787 -0.04782,0.63517 0.520441,2.00773 0.797002,3.21929 0.413775,1.81268 1.100442,4.51797 0.653886,5.73394 -0.280512,0.72592 -0.623248,0.8711 -0.968563,0.99219 -1.101931,0.2977 -1.603188,-0.64349 -1.659552,-0.82091 -0.223871,-0.67966 -0.0043,-0.92553 0.271669,-1.11621 0.37492,-0.20257 0.5964,-0.0983 0.809107,0.0236 0.349553,0.30019 0.326551,0.61694 0.183081,0.93904 -0.334635,0.40122 -0.559782,0.33165 -0.787022,0.27107 0.572681,0.74492 1.277435,0.3425 1.365798,0.28999 1.129683,-0.70604 0.503683,-3.16825 -0.01768,-5.67146 -0.213363,-1.02442 -0.792393,-2.54724 -0.942096,-3.67842 -0.161329,-1.21902 0.03117,-2.38755 1.006554,-3.03116 l 0.06228,-0.008 0.07859,0.023 c 0.350337,0.44479 0.780511,1.06273 0.928203,2.35715 0.111949,1.05147 -0.60668,1.94028 -1.36866,2.83861 -0.695692,0.82018 -1.42752,1.64829 -1.596361,2.61536 -0.169569,0.98832 0.347149,1.55601 1.140071,1.95441 1.196342,0.48115 2.692078,-0.17546 2.296847,-1.49089 -0.423256,-1.36144 -2.365638,-1.25843 -2.34696,-0.0459 0,0 0.05686,0.45819 0.574308,0.7827 0.116853,0.14717 -0.0021,0.28442 -0.168701,0.24598 -0.565965,-0.31007 -0.846233,-0.90122 -0.835742,-1.27507 0.11081,-1.11037 0.921016,-1.5345 1.714807,-1.44343 0.819282,0.094 1.621079,0.73681 1.618369,1.74041 -0.0202,2.10867 -2.658118,2.46954 -3.768057,1.22363 -0.787718,-0.80625 -0.729259,-1.77618 -0.747077,-2.09444 0.0554,-0.99052 0.744251,-1.78854 1.443909,-2.58766 0.655001,-0.74811 1.319472,-1.49717 1.482542,-2.40603 0.12677,-0.75831 0.0048,-1.03692 -0.07931,-1.38852 z"
       id="path114"
       inkscape:connector-curvature="0"
       sodipodi:nodetypes="ccsccccccccssccccscccccccscccsccc" />
  </g>
</svg>
